<svg xmlns="http://www.w3.org/2000/svg" width="70" height="70" viewBox="0 0 70 70">
    <g>
        <path fill="#f95452" d="M35 5a31.23 31.23 0 0 0-3.39.18 30.44 30.44 0 0 0-7.78 1.95s20.26 19.94 20.78 20.7V6.55c-.61-.18-1.16-.36-1.8-.55A31.37 31.37 0 0 0 35 5zm0 0" />
        <path fill="#6467f0" d="M56.18 13.69a29.12 29.12 0 0 0-2.53-2.25 30.15 30.15 0 0 0-6.9-4.1s.15 28.36 0 29.27l15.11-15c-.27-.58-.61-1.12-.92-1.67a29.22 29.22 0 0 0-4.76-6.2zm0 0" />
        <path fill="#5283f0" d="M62.8 23.91S42.78 44.09 42 44.6h21.38c.18-.61.37-1.19.58-1.82a29.28 29.28 0 0 0 1-7.72 30.85 30.85 0 0 0-.18-3.37 31 31 0 0 0-2-7.78zm0 0" />
        <path fill="#00b1fe" d="M33.08 46.82l15.11 15c.58-.27 1.13-.61 1.71-.91a29.6 29.6 0 0 0 6.23-4.74 29 29 0 0 0 2.26-2.52 30 30 0 0 0 4.12-6.87s-28.5.15-29.42 0zm0 0" />
        <path fill="#65d020" d="M25.36 42.11v21.28c.61.18 1.25.36 1.83.58a29.63 29.63 0 0 0 7.75 1 29.92 29.92 0 0 0 11.17-2.13c0-.06-20.23-20-20.75-20.76zm0 0" />
        <path fill="#9ad122" d="M23.22 33.27l-15.11 15c.27.58.61 1.12.92 1.7a29.5 29.5 0 0 0 4.76 6.2 29.12 29.12 0 0 0 2.53 2.25 30.15 30.15 0 0 0 6.9 4.1c0-.06-.15-28.42 0-29.3zm0 0" />
        <path fill="#ffc817" d="M6 27.22a29.27 29.27 0 0 0-1 7.72 30.85 30.85 0 0 0 .18 3.37 30.12 30.12 0 0 0 2 7.75s20-20.18 20.75-20.7H6.59c-.21.64-.43 1.22-.58 1.85zm0 0" />
        <path fill="#ff7612" d="M19.92 9.1a28.67 28.67 0 0 0-6.2 4.74c-.82.82-1.56 1.67-2.26 2.52a30 30 0 0 0-4.12 6.87s28.5-.15 29.39 0L21.6 8.22c-.55.27-1.13.58-1.68.88zm0 0" />
    </g>
</svg>