<svg xmlns="http://www.w3.org/2000/svg" width="70" height="70" viewBox="0 0 70 70">
    <g>
        <path fill="#4caf50" d="M41.68 35a2.43 2.43 0 0 0-2.31 2.39 2.4 2.4 0 0 0 2.31 2.15c1.73 0 3-1.08 3-2.15 0-1.32-1.24-2.39-3-2.39m-7.59-11.18a2.75 2.75 0 0 0 3-2.89 2.71 2.71 0 0 0-3-2.89c-1.73 0-3.38 1.07-3.38 2.89a3.16 3.16 0 0 0 3.38 2.89m-8.66 24a27.27 27.27 0 0 1-8.17-1.32l-8.33 4.21 2.39-7.09C5.46 39.5 2 34.3 2 27.94c0-11.21 10.56-19.8 23.43-19.8 11.39 0 21.53 6.77 23.51 16.34a11.4 11.4 0 0 0-2.23-.25c-11.22 0-19.88 8.42-19.88 18.56a19.91 19.91 0 0 0 .66 5 17.39 17.39 0 0 1-2.06.08m34.4 8.09l1.65 5.94-6.27-3.55a35.6 35.6 0 0 1-7.09 1.24c-11.06 0-19.8-7.59-19.8-17s8.75-17 19.8-17c10.48 0 19.88 7.59 19.88 17 0 5.28-3.55 10-8.17 13.37M17.76 18c-1.73 0-3.55 1.07-3.55 2.89s1.82 2.89 3.55 2.89a2.84 2.84 0 0 0 3-2.89 2.79 2.79 0 0 0-3-2.89m36.87 17a2.38 2.38 0 0 0-2.31 2.39 2.34 2.34 0 0 0 2.31 2.15c1.65 0 2.89-1.08 2.89-2.15A2.64 2.64 0 0 0 54.63 35" />
    </g>
</svg>