<svg xmlns="http://www.w3.org/2000/svg" width="70" height="70" viewBox="0 0 70 70">
    <g>
        <path fill="#ef5350" d="M67.15 31.11a2.53 2.53 0 1 1-4.81-1.56 12.45 12.45 0 0 0-14.42-16 2.53 2.53 0 0 1-1.06-5 17.51 17.51 0 0 1 20.29 22.56zm0 0" />
        <path fill="#ef5350" d="M49.65 21.64a2.18 2.18 0 0 1-.91-4.26 8.52 8.52 0 0 1 9.88 11A2.17 2.17 0 1 1 54.48 27a4.17 4.17 0 0 0-4.83-5.37zM51.58 34c-.93-.28-1.57-.47-1.08-1.7 1.05-2.66 1.16-5 0-6.59-2.14-3.07-8-2.9-14.73-.08 0 0-2.11.92-1.57-.75 1-3.33.88-6.13-.73-7.73-3.65-3.66-13.34.14-21.65 8.47C5.62 31.87 2 38.49 2 44.21c0 10.95 14 17.6 27.69 17.6 17.95 0 29.89-10.46 29.89-18.76 0-5-4.22-7.86-8-9zM29.73 57.89C18.8 59 9.37 54 8.66 46.82s7.58-13.9 18.5-15 20.36 3.89 21.07 11.08-7.57 13.91-18.5 15zm0 0" />
        <path class="cls-2" d="M30.82 37.37c-5.2-1.36-11.08 1.24-13.33 5.83s-.08 9.89 5.18 11.59c5.44 1.76 11.86-.93 14.08-6s-.55-10-5.93-11.43zm-4 12a4.13 4.13 0 0 1-5 1.65 2.91 2.91 0 0 1-1.12-4.38 4.15 4.15 0 0 1 4.92-1.66 2.92 2.92 0 0 1 1.22 4.39zm0 0" />
    </g>
</svg>